<?xml version="1.0" standalone="no"?>
<!DOCTYPE svg PUBLIC "-//W3C//DTD SVG 20010904//EN"
 "http://www.w3.org/TR/2001/REC-SVG-20010904/DTD/svg10.dtd">
<svg version="1.0" xmlns="http://www.w3.org/2000/svg"
 width="225.000000pt" height="225.000000pt" viewBox="0 0 225.000000 225.000000"
 preserveAspectRatio="xMidYMid meet">

<g transform="translate(0.000000,225.000000) scale(0.100000,-0.100000)"
fill="#000000" stroke="none">
<path d="M960 1872 c-373 -89 -618 -412 -597 -787 7 -127 25 -196 83 -315 40
-82 60 -108 143 -190 81 -81 111 -103 192 -143 184 -91 369 -108 564 -52 130
37 224 94 325 195 101 101 158 195 195 325 56 195 39 380 -52 565 -40 81 -61
109 -142 191 -82 82 -110 102 -191 142 -126 62 -192 78 -330 83 -86 3 -134 -1
-190 -14z m355 -27 c105 -27 234 -98 314 -171 164 -152 244 -334 244 -554 0
-120 -18 -207 -63 -306 -95 -209 -285 -367 -508 -421 -88 -21 -256 -21 -344 0
-265 65 -487 282 -553 542 -64 253 6 514 188 704 153 158 347 236 562 226 55
-2 127 -11 160 -20z"/>
<path d="M656 1334 c-3 -9 -6 -27 -6 -40 0 -22 4 -24 50 -24 28 0 50 -2 50 -4
0 -2 -6 -41 -14 -87 -8 -46 -22 -133 -31 -194 -9 -60 -18 -118 -21 -127 -5
-16 2 -18 45 -18 58 0 51 -13 76 150 16 109 32 205 41 252 5 25 10 27 57 30
51 3 52 3 58 41 l6 37 -153 0 c-129 0 -153 -2 -158 -16z"/>
<path d="M1000 1340 c0 -13 -69 -450 -75 -477 -5 -22 -2 -23 45 -23 56 0 49
-12 73 125 l13 80 28 -60 c15 -33 36 -79 47 -102 l18 -43 61 0 61 0 -56 106
c-56 106 -58 123 -19 124 17 0 62 52 78 92 31 72 12 144 -44 173 -33 17 -230
22 -230 5z m172 -87 c10 -9 18 -26 18 -39 0 -56 -39 -94 -97 -94 -24 0 -25 1
-19 48 14 100 15 102 49 102 17 0 39 -7 49 -17z"/>
<path d="M1375 1293 c-6 -56 -17 -125 -49 -322 -23 -137 -24 -131 33 -131 l48
0 7 53 c4 28 9 71 12 93 l6 41 60 7 c113 11 158 51 180 160 10 48 10 60 -5 91
-24 51 -65 65 -186 65 l-99 0 -7 -57z m185 -43 c23 -23 23 -23 10 -72 -12 -43
-34 -58 -84 -58 -41 0 -40 -1 -24 86 11 63 12 64 45 64 20 0 41 -8 53 -20z"/>
</g>
</svg>
